<svg width="47" height="52" viewBox="0 0 47 52" fill="none" xmlns="http://www.w3.org/2000/svg">
<path d="M10.2656 45.293C10.1602 46.1953 9.82617 46.8926 9.26367 47.3848C8.70508 47.873 7.96094 48.1172 7.03125 48.1172C6.02344 48.1172 5.21484 47.7559 4.60547 47.0332C4 46.3105 3.69727 45.3438 3.69727 44.1328V43.3125C3.69727 42.5195 3.83789 41.8223 4.11914 41.2207C4.4043 40.6191 4.80664 40.1582 5.32617 39.8379C5.8457 39.5137 6.44727 39.3516 7.13086 39.3516C8.03711 39.3516 8.76367 39.6055 9.31055 40.1133C9.85742 40.6172 10.1758 41.3164 10.2656 42.2109H9.13477C9.03711 41.5312 8.82422 41.0391 8.49609 40.7344C8.17188 40.4297 7.7168 40.2773 7.13086 40.2773C6.41211 40.2773 5.84766 40.543 5.4375 41.0742C5.03125 41.6055 4.82812 42.3613 4.82812 43.3418V44.168C4.82812 45.0938 5.02148 45.8301 5.4082 46.377C5.79492 46.9238 6.33594 47.1973 7.03125 47.1973C7.65625 47.1973 8.13477 47.0566 8.4668 46.7754C8.80273 46.4902 9.02539 45.9961 9.13477 45.293H10.2656ZM12.8145 48H11.7305V41.6602H12.8145V48ZM11.6426 39.9785C11.6426 39.8027 11.6953 39.6543 11.8008 39.5332C11.9102 39.4121 12.0703 39.3516 12.2812 39.3516C12.4922 39.3516 12.6523 39.4121 12.7617 39.5332C12.8711 39.6543 12.9258 39.8027 12.9258 39.9785C12.9258 40.1543 12.8711 40.3008 12.7617 40.418C12.6523 40.5352 12.4922 40.5938 12.2812 40.5938C12.0703 40.5938 11.9102 40.5352 11.8008 40.418C11.6953 40.3008 11.6426 40.1543 11.6426 39.9785ZM15.5801 41.6602L15.6152 42.457C16.0996 41.8477 16.7324 41.543 17.5137 41.543C18.8535 41.543 19.5293 42.2988 19.541 43.8105V48H18.457V43.8047C18.4531 43.3477 18.3477 43.0098 18.1406 42.791C17.9375 42.5723 17.6191 42.4629 17.1855 42.4629C16.834 42.4629 16.5254 42.5566 16.2598 42.7441C15.9941 42.9316 15.7871 43.1777 15.6387 43.4824V48H14.5547V41.6602H15.5801ZM23.8066 48.1172C22.9473 48.1172 22.248 47.8359 21.709 47.2734C21.1699 46.707 20.9004 45.9512 20.9004 45.0059V44.8066C20.9004 44.1777 21.0195 43.6172 21.2578 43.125C21.5 42.6289 21.8359 42.2422 22.2656 41.9648C22.6992 41.6836 23.168 41.543 23.6719 41.543C24.4961 41.543 25.1367 41.8145 25.5938 42.3574C26.0508 42.9004 26.2793 43.6777 26.2793 44.6895V45.1406H21.9844C22 45.7656 22.1816 46.2715 22.5293 46.6582C22.8809 47.041 23.3262 47.2324 23.8652 47.2324C24.248 47.2324 24.5723 47.1543 24.8379 46.998C25.1035 46.8418 25.3359 46.6348 25.5352 46.377L26.1973 46.8926C25.666 47.709 24.8691 48.1172 23.8066 48.1172ZM23.6719 42.4336C23.2344 42.4336 22.8672 42.5938 22.5703 42.9141C22.2734 43.2305 22.0898 43.6758 22.0195 44.25H25.1953V44.168C25.1641 43.6172 25.0156 43.1914 24.75 42.8906C24.4844 42.5859 24.125 42.4336 23.6719 42.4336ZM28.5586 41.6602L28.5879 42.3633C29.0527 41.8164 29.6797 41.543 30.4688 41.543C31.3555 41.543 31.959 41.8828 32.2793 42.5625C32.4902 42.2578 32.7637 42.0117 33.0996 41.8242C33.4395 41.6367 33.8398 41.543 34.3008 41.543C35.6914 41.543 36.3984 42.2793 36.4219 43.752V48H35.3379V43.8164C35.3379 43.3633 35.2344 43.0254 35.0273 42.8027C34.8203 42.5762 34.4727 42.4629 33.9844 42.4629C33.582 42.4629 33.248 42.584 32.9824 42.8262C32.7168 43.0645 32.5625 43.3867 32.5195 43.793V48H31.4297V43.8457C31.4297 42.9238 30.9785 42.4629 30.0762 42.4629C29.3652 42.4629 28.8789 42.7656 28.6172 43.3711V48H27.5332V41.6602H28.5586ZM41.9766 48C41.9141 47.875 41.8633 47.6523 41.8242 47.332C41.3203 47.8555 40.7188 48.1172 40.0195 48.1172C39.3945 48.1172 38.8809 47.9414 38.4785 47.5898C38.0801 47.2344 37.8809 46.7852 37.8809 46.2422C37.8809 45.582 38.1309 45.0703 38.6309 44.707C39.1348 44.3398 39.8418 44.1562 40.752 44.1562H41.8066V43.6582C41.8066 43.2793 41.6934 42.9785 41.4668 42.7559C41.2402 42.5293 40.9062 42.416 40.4648 42.416C40.0781 42.416 39.7539 42.5137 39.4922 42.709C39.2305 42.9043 39.0996 43.1406 39.0996 43.418H38.0098C38.0098 43.1016 38.1211 42.7969 38.3438 42.5039C38.5703 42.207 38.875 41.9727 39.2578 41.8008C39.6445 41.6289 40.0684 41.543 40.5293 41.543C41.2598 41.543 41.832 41.7266 42.2461 42.0938C42.6602 42.457 42.875 42.959 42.8906 43.5996V46.5176C42.8906 47.0996 42.9648 47.5625 43.1133 47.9062V48H41.9766ZM40.1777 47.1738C40.5176 47.1738 40.8398 47.0859 41.1445 46.9102C41.4492 46.7344 41.6699 46.5059 41.8066 46.2246V44.9238H40.957C39.6289 44.9238 38.9648 45.3125 38.9648 46.0898C38.9648 46.4297 39.0781 46.6953 39.3047 46.8867C39.5312 47.0781 39.8223 47.1738 40.1777 47.1738Z" fill="#A5A5A5"/>
<path d="M20.375 6.6875C20.375 7.9307 19.8811 9.12299 19.0021 10.0021C18.123 10.8811 16.9307 11.375 15.6875 11.375C14.4443 11.375 13.252 10.8811 12.3729 10.0021C11.4939 9.12299 11 7.9307 11 6.6875C11 5.4443 11.4939 4.25201 12.3729 3.37294C13.252 2.49386 14.4443 2 15.6875 2C16.9307 2 18.123 2.49386 19.0021 3.37294C19.8811 4.25201 20.375 5.4443 20.375 6.6875ZM12.5625 6.6875C12.5625 7.5163 12.8917 8.31116 13.4778 8.89721C14.0638 9.48326 14.8587 9.8125 15.6875 9.8125C16.5163 9.8125 17.3112 9.48326 17.8972 8.89721C18.4833 8.31116 18.8125 7.5163 18.8125 6.6875C18.8125 5.8587 18.4833 5.06384 17.8972 4.47779C17.3112 3.89174 16.5163 3.5625 15.6875 3.5625C14.8587 3.5625 14.0638 3.89174 13.4778 4.47779C12.8917 5.06384 12.5625 5.8587 12.5625 6.6875Z" fill="#31313B"/>
<path d="M25.0625 11.375H25.8438C26.6017 11.3749 27.3339 11.6503 27.9039 12.1499C28.4739 12.6495 28.8429 13.3392 28.9422 14.0906L33.8016 11.9312C34.0394 11.8253 34.3 11.7804 34.5596 11.8008C34.8192 11.8211 35.0696 11.906 35.288 12.0478C35.5065 12.1895 35.686 12.3836 35.8104 12.6124C35.9347 12.8412 35.9999 13.0974 36 13.3578V25.0172C35.9998 25.2774 35.9346 25.5334 35.8103 25.762C35.6861 25.9906 35.5067 26.1846 35.2885 26.3263C35.0702 26.468 34.8201 26.5529 34.5607 26.5735C34.3013 26.594 34.0409 26.5494 33.8031 26.4438L28.9422 24.2844C28.8429 25.0358 28.4739 25.7255 27.9039 26.2251C27.3339 26.7247 26.6017 27.0001 25.8438 27H14.125C13.2962 27 12.5013 26.6708 11.9153 26.0847C11.3292 25.4987 11 24.7038 11 23.875V14.5C11 13.6712 11.3292 12.8763 11.9153 12.2903C12.5013 11.7042 13.2962 11.375 14.125 11.375H25.0625ZM34.4375 25.0156V13.3594L28.9688 15.7891V22.5859L34.4375 25.0172V25.0156ZM12.5625 14.5V23.875C12.5625 24.2894 12.7271 24.6868 13.0201 24.9799C13.3132 25.2729 13.7106 25.4375 14.125 25.4375H25.8438C26.2582 25.4375 26.6556 25.2729 26.9486 24.9799C27.2416 24.6868 27.4062 24.2894 27.4062 23.875V14.5C27.4062 14.0856 27.2416 13.6882 26.9486 13.3951C26.6556 13.1021 26.2582 12.9375 25.8438 12.9375H14.125C13.7106 12.9375 13.3132 13.1021 13.0201 13.3951C12.7271 13.6882 12.5625 14.0856 12.5625 14.5Z" fill="#31313B"/>
<path d="M25.0625 11.375C26.3057 11.375 27.498 10.8811 28.3771 10.0021C29.2561 9.12299 29.75 7.9307 29.75 6.6875C29.75 5.4443 29.2561 4.25201 28.3771 3.37294C27.498 2.49386 26.3057 2 25.0625 2C23.8193 2 22.627 2.49386 21.7479 3.37294C20.8689 4.25201 20.375 5.4443 20.375 6.6875C20.375 7.9307 20.8689 9.12299 21.7479 10.0021C22.627 10.8811 23.8193 11.375 25.0625 11.375ZM21.9375 6.6875C21.9375 5.8587 22.2667 5.06384 22.8528 4.47779C23.4388 3.89174 24.2337 3.5625 25.0625 3.5625C25.8913 3.5625 26.6862 3.89174 27.2722 4.47779C27.8583 5.06384 28.1875 5.8587 28.1875 6.6875C28.1875 7.5163 27.8583 8.31116 27.2722 8.89721C26.6862 9.48326 25.8913 9.8125 25.0625 9.8125C24.2337 9.8125 23.4388 9.48326 22.8528 8.89721C22.2667 8.31116 21.9375 7.5163 21.9375 6.6875Z" fill="#31313B"/>
</svg>
