<svg width="72" height="75" viewBox="0 0 72 75" fill="none" xmlns="http://www.w3.org/2000/svg">
<path d="M12.2656 56.293C12.1602 57.1953 11.8262 57.8926 11.2637 58.3848C10.7051 58.873 9.96094 59.1172 9.03125 59.1172C8.02344 59.1172 7.21484 58.7559 6.60547 58.0332C6 57.3105 5.69727 56.3438 5.69727 55.1328V54.3125C5.69727 53.5195 5.83789 52.8223 6.11914 52.2207C6.4043 51.6191 6.80664 51.1582 7.32617 50.8379C7.8457 50.5137 8.44727 50.3516 9.13086 50.3516C10.0371 50.3516 10.7637 50.6055 11.3105 51.1133C11.8574 51.6172 12.1758 52.3164 12.2656 53.2109H11.1348C11.0371 52.5312 10.8242 52.0391 10.4961 51.7344C10.1719 51.4297 9.7168 51.2773 9.13086 51.2773C8.41211 51.2773 7.84766 51.543 7.4375 52.0742C7.03125 52.6055 6.82812 53.3613 6.82812 54.3418V55.168C6.82812 56.0938 7.02148 56.8301 7.4082 57.377C7.79492 57.9238 8.33594 58.1973 9.03125 58.1973C9.65625 58.1973 10.1348 58.0566 10.4668 57.7754C10.8027 57.4902 11.0254 56.9961 11.1348 56.293H12.2656ZM13.3496 55.7715C13.3496 55.1504 13.4707 54.5918 13.7129 54.0957C13.959 53.5996 14.2988 53.2168 14.7324 52.9473C15.1699 52.6777 15.668 52.543 16.2266 52.543C17.0898 52.543 17.7871 52.8418 18.3184 53.4395C18.8535 54.0371 19.1211 54.832 19.1211 55.8242V55.9004C19.1211 56.5176 19.002 57.0723 18.7637 57.5645C18.5293 58.0527 18.1914 58.4336 17.75 58.707C17.3125 58.9805 16.8086 59.1172 16.2383 59.1172C15.3789 59.1172 14.6816 58.8184 14.1465 58.2207C13.6152 57.623 13.3496 56.832 13.3496 55.8477V55.7715ZM14.4395 55.9004C14.4395 56.6035 14.6016 57.168 14.9258 57.5938C15.2539 58.0195 15.6914 58.2324 16.2383 58.2324C16.7891 58.2324 17.2266 58.0176 17.5508 57.5879C17.875 57.1543 18.0371 56.5488 18.0371 55.7715C18.0371 55.0762 17.8711 54.5137 17.5391 54.084C17.2109 53.6504 16.7734 53.4336 16.2266 53.4336C15.6914 53.4336 15.2598 53.6465 14.9316 54.0723C14.6035 54.498 14.4395 55.1074 14.4395 55.9004ZM21.0137 59V53.498H20.0117V52.6602H21.0137V52.0098C21.0137 51.3301 21.1953 50.8047 21.5586 50.4336C21.9219 50.0625 22.4355 49.877 23.0996 49.877C23.3496 49.877 23.5977 49.9102 23.8438 49.9766L23.7852 50.8555C23.6016 50.8203 23.4062 50.8027 23.1992 50.8027C22.8477 50.8027 22.5762 50.9062 22.3848 51.1133C22.1934 51.3164 22.0977 51.6094 22.0977 51.9922V52.6602H23.4512V53.498H22.0977V59H21.0137ZM25.1855 59V53.498H24.1836V52.6602H25.1855V52.0098C25.1855 51.3301 25.3672 50.8047 25.7305 50.4336C26.0938 50.0625 26.6074 49.877 27.2715 49.877C27.5215 49.877 27.7695 49.9102 28.0156 49.9766L27.957 50.8555C27.7734 50.8203 27.5781 50.8027 27.3711 50.8027C27.0195 50.8027 26.748 50.9062 26.5566 51.1133C26.3652 51.3164 26.2695 51.6094 26.2695 51.9922V52.6602H27.623V53.498H26.2695V59H25.1855ZM31.3145 59.1172C30.4551 59.1172 29.7559 58.8359 29.2168 58.2734C28.6777 57.707 28.4082 56.9512 28.4082 56.0059V55.8066C28.4082 55.1777 28.5273 54.6172 28.7656 54.125C29.0078 53.6289 29.3438 53.2422 29.7734 52.9648C30.207 52.6836 30.6758 52.543 31.1797 52.543C32.0039 52.543 32.6445 52.8145 33.1016 53.3574C33.5586 53.9004 33.7871 54.6777 33.7871 55.6895V56.1406H29.4922C29.5078 56.7656 29.6895 57.2715 30.0371 57.6582C30.3887 58.041 30.834 58.2324 31.373 58.2324C31.7559 58.2324 32.0801 58.1543 32.3457 57.998C32.6113 57.8418 32.8438 57.6348 33.043 57.377L33.7051 57.8926C33.1738 58.709 32.377 59.1172 31.3145 59.1172ZM31.1797 53.4336C30.7422 53.4336 30.375 53.5938 30.0781 53.9141C29.7812 54.2305 29.5977 54.6758 29.5273 55.25H32.7031V55.168C32.6719 54.6172 32.5234 54.1914 32.2578 53.8906C31.9922 53.5859 31.6328 53.4336 31.1797 53.4336ZM37.6777 59.1172C36.8184 59.1172 36.1191 58.8359 35.5801 58.2734C35.041 57.707 34.7715 56.9512 34.7715 56.0059V55.8066C34.7715 55.1777 34.8906 54.6172 35.1289 54.125C35.3711 53.6289 35.707 53.2422 36.1367 52.9648C36.5703 52.6836 37.0391 52.543 37.543 52.543C38.3672 52.543 39.0078 52.8145 39.4648 53.3574C39.9219 53.9004 40.1504 54.6777 40.1504 55.6895V56.1406H35.8555C35.8711 56.7656 36.0527 57.2715 36.4004 57.6582C36.752 58.041 37.1973 58.2324 37.7363 58.2324C38.1191 58.2324 38.4434 58.1543 38.709 57.998C38.9746 57.8418 39.207 57.6348 39.4062 57.377L40.0684 57.8926C39.5371 58.709 38.7402 59.1172 37.6777 59.1172ZM37.543 53.4336C37.1055 53.4336 36.7383 53.5938 36.4414 53.9141C36.1445 54.2305 35.9609 54.6758 35.8906 55.25H39.0664V55.168C39.0352 54.6172 38.8867 54.1914 38.6211 53.8906C38.3555 53.5859 37.9961 53.4336 37.543 53.4336ZM47.0703 55.1973C46.1055 54.9199 45.4023 54.5801 44.9609 54.1777C44.5234 53.7715 44.3047 53.2715 44.3047 52.6777C44.3047 52.0059 44.5723 51.4512 45.1074 51.0137C45.6465 50.5723 46.3457 50.3516 47.2051 50.3516C47.791 50.3516 48.3125 50.4648 48.7695 50.6914C49.2305 50.918 49.5859 51.2305 49.8359 51.6289C50.0898 52.0273 50.2168 52.4629 50.2168 52.9355H49.0859C49.0859 52.4199 48.9219 52.0156 48.5938 51.7227C48.2656 51.4258 47.8027 51.2773 47.2051 51.2773C46.6504 51.2773 46.2168 51.4004 45.9043 51.6465C45.5957 51.8887 45.4414 52.2266 45.4414 52.6602C45.4414 53.0078 45.5879 53.3027 45.8809 53.5449C46.1777 53.7832 46.6797 54.002 47.3867 54.2012C48.0977 54.4004 48.6523 54.6211 49.0508 54.8633C49.4531 55.1016 49.75 55.3809 49.9414 55.7012C50.1367 56.0215 50.2344 56.3984 50.2344 56.832C50.2344 57.5234 49.9648 58.0781 49.4258 58.4961C48.8867 58.9102 48.166 59.1172 47.2637 59.1172C46.6777 59.1172 46.1309 59.0059 45.623 58.7832C45.1152 58.5566 44.7227 58.248 44.4453 57.8574C44.1719 57.4668 44.0352 57.0234 44.0352 56.5273H45.166C45.166 57.043 45.3555 57.4512 45.7344 57.752C46.1172 58.0488 46.627 58.1973 47.2637 58.1973C47.8574 58.1973 48.3125 58.0762 48.6289 57.834C48.9453 57.5918 49.1035 57.2617 49.1035 56.8438C49.1035 56.4258 48.957 56.1035 48.6641 55.877C48.3711 55.6465 47.8398 55.4199 47.0703 55.1973ZM52.5957 53.4277C53.0762 52.8379 53.7012 52.543 54.4707 52.543C55.8105 52.543 56.4863 53.2988 56.498 54.8105V59H55.4141V54.8047C55.4102 54.3477 55.3047 54.0098 55.0977 53.791C54.8945 53.5723 54.5762 53.4629 54.1426 53.4629C53.791 53.4629 53.4824 53.5566 53.2168 53.7441C52.9512 53.9316 52.7441 54.1777 52.5957 54.4824V59H51.5117V50H52.5957V53.4277ZM57.834 55.7715C57.834 55.1504 57.9551 54.5918 58.1973 54.0957C58.4434 53.5996 58.7832 53.2168 59.2168 52.9473C59.6543 52.6777 60.1523 52.543 60.7109 52.543C61.5742 52.543 62.2715 52.8418 62.8027 53.4395C63.3379 54.0371 63.6055 54.832 63.6055 55.8242V55.9004C63.6055 56.5176 63.4863 57.0723 63.248 57.5645C63.0137 58.0527 62.6758 58.4336 62.2344 58.707C61.7969 58.9805 61.293 59.1172 60.7227 59.1172C59.8633 59.1172 59.166 58.8184 58.6309 58.2207C58.0996 57.623 57.834 56.832 57.834 55.8477V55.7715ZM58.9238 55.9004C58.9238 56.6035 59.0859 57.168 59.4102 57.5938C59.7383 58.0195 60.1758 58.2324 60.7227 58.2324C61.2734 58.2324 61.7109 58.0176 62.0352 57.5879C62.3594 57.1543 62.5215 56.5488 62.5215 55.7715C62.5215 55.0762 62.3555 54.5137 62.0234 54.084C61.6953 53.6504 61.2578 53.4336 60.7109 53.4336C60.1758 53.4336 59.7441 53.6465 59.416 54.0723C59.0879 54.498 58.9238 55.1074 58.9238 55.9004ZM70.3203 55.9004C70.3203 56.8652 70.0996 57.6426 69.6582 58.2324C69.2168 58.8223 68.6191 59.1172 67.8652 59.1172C67.0957 59.1172 66.4902 58.873 66.0488 58.3848V61.4375H64.9648V52.6602H65.9551L66.0078 53.3633C66.4492 52.8164 67.0625 52.543 67.8477 52.543C68.6094 52.543 69.2109 52.8301 69.6523 53.4043C70.0977 53.9785 70.3203 54.7773 70.3203 55.8008V55.9004ZM69.2363 55.7773C69.2363 55.0625 69.084 54.498 68.7793 54.084C68.4746 53.6699 68.0566 53.4629 67.5254 53.4629C66.8691 53.4629 66.377 53.7539 66.0488 54.3359V57.3652C66.373 57.9434 66.8691 58.2324 67.5371 58.2324C68.0566 58.2324 68.4688 58.0273 68.7734 57.6172C69.082 57.2031 69.2363 56.5898 69.2363 55.7773Z" fill="#A5A5A5"/>
<path d="M46.7286 20.2711C47.4824 20.2689 48.2289 20.4174 48.9244 20.708C49.6198 20.9985 50.2502 21.4251 50.7784 21.9628C51.3065 22.5005 51.7218 23.1384 51.9999 23.839C52.2779 24.5396 52.413 25.2886 52.3973 26.0422C52.3816 26.7957 52.2154 27.5385 51.9084 28.2269C51.6014 28.9153 51.1599 29.5353 50.6098 30.0505C50.0597 30.5658 49.4121 30.9658 48.7051 31.2271C47.9981 31.4884 47.2461 31.6056 46.4931 31.572C46.0756 33.1914 45.1318 34.6261 43.8099 35.6505C42.4881 36.6748 40.8633 37.2308 39.191 37.2309H33.5377C31.5386 37.2309 29.6213 36.4368 28.2077 35.0232C26.7941 33.6096 26 31.6924 26 29.6933V19.3289C26 19.079 26.0993 18.8394 26.276 18.6627C26.4527 18.486 26.6923 18.3867 26.9422 18.3867H45.7864C46.0363 18.3867 46.276 18.486 46.4527 18.6627C46.6294 18.8394 46.7286 19.079 46.7286 19.3289V20.2711ZM46.7286 22.1556V29.6933C47.7282 29.6933 48.6868 29.2962 49.3936 28.5894C50.1004 27.8826 50.4975 26.924 50.4975 25.9244C50.4975 24.9248 50.1004 23.9662 49.3936 23.2594C48.6868 22.5526 47.7282 22.1556 46.7286 22.1556ZM26.9422 39.1154H45.7864C46.0363 39.1154 46.276 39.2146 46.4527 39.3913C46.6294 39.568 46.7286 39.8077 46.7286 40.0576C46.7286 40.3075 46.6294 40.5471 46.4527 40.7238C46.276 40.9005 46.0363 40.9998 45.7864 40.9998H26.9422C26.6923 40.9998 26.4527 40.9005 26.276 40.7238C26.0993 40.5471 26 40.3075 26 40.0576C26 39.8077 26.0993 39.568 26.276 39.3913C26.4527 39.2146 26.6923 39.1154 26.9422 39.1154ZM27.8844 20.2711V29.6933C27.8844 31.1926 28.48 32.6305 29.5402 33.6907C30.6004 34.7509 32.0383 35.3465 33.5377 35.3465H39.191C40.6903 35.3465 42.1282 34.7509 43.1884 33.6907C44.2486 32.6305 44.8442 31.1926 44.8442 29.6933V20.2711H27.8844Z" fill="#31313B"/>
<line x1="31.8517" y1="11" x2="31.8517" y2="17.0302" stroke="#31313B"/>
<line x1="35.4698" y1="11" x2="35.4698" y2="17.0302" stroke="#31313B"/>
<line x1="39.088" y1="11" x2="39.088" y2="17.0302" stroke="#31313B"/>
</svg>
