<svg width="64" height="63" viewBox="0 0 64 63" fill="none" xmlns="http://www.w3.org/2000/svg">
<path d="M14.2988 55H8.70898V54.2207L11.6621 50.9395C12.0996 50.4434 12.4004 50.041 12.5645 49.7324C12.7324 49.4199 12.8164 49.0977 12.8164 48.7656C12.8164 48.3203 12.6816 47.9551 12.4121 47.6699C12.1426 47.3848 11.7832 47.2422 11.334 47.2422C10.7949 47.2422 10.375 47.3965 10.0742 47.7051C9.77734 48.0098 9.62891 48.4355 9.62891 48.9824H8.54492C8.54492 48.1973 8.79688 47.5625 9.30078 47.0781C9.80859 46.5938 10.4863 46.3516 11.334 46.3516C12.127 46.3516 12.7539 46.5605 13.2148 46.9785C13.6758 47.3926 13.9062 47.9453 13.9062 48.6367C13.9062 49.4766 13.3711 50.4766 12.3008 51.6367L10.0156 54.1152H14.2988V55ZM20.0234 52.1348H21.207V53.0195H20.0234V55H18.9336V53.0195H15.0488V52.3809L18.8691 46.4688H20.0234V52.1348ZM16.2793 52.1348H18.9336V47.9512L18.8047 48.1855L16.2793 52.1348ZM23.3809 49.4277C23.8613 48.8379 24.4863 48.543 25.2559 48.543C26.5957 48.543 27.2715 49.2988 27.2832 50.8105V55H26.1992V50.8047C26.1953 50.3477 26.0898 50.0098 25.8828 49.791C25.6797 49.5723 25.3613 49.4629 24.9277 49.4629C24.5762 49.4629 24.2676 49.5566 24.002 49.7441C23.7363 49.9316 23.5293 50.1777 23.3809 50.4824V55H22.2969V46H23.3809V49.4277ZM36.7578 51.2324H33.1777V55H32.0527V46.4688H37.3379V47.3945H33.1777V50.3125H36.7578V51.2324ZM38.0996 51.7715C38.0996 51.1504 38.2207 50.5918 38.4629 50.0957C38.709 49.5996 39.0488 49.2168 39.4824 48.9473C39.9199 48.6777 40.418 48.543 40.9766 48.543C41.8398 48.543 42.5371 48.8418 43.0684 49.4395C43.6035 50.0371 43.8711 50.832 43.8711 51.8242V51.9004C43.8711 52.5176 43.752 53.0723 43.5137 53.5645C43.2793 54.0527 42.9414 54.4336 42.5 54.707C42.0625 54.9805 41.5586 55.1172 40.9883 55.1172C40.1289 55.1172 39.4316 54.8184 38.8965 54.2207C38.3652 53.623 38.0996 52.832 38.0996 51.8477V51.7715ZM39.1895 51.9004C39.1895 52.6035 39.3516 53.168 39.6758 53.5938C40.0039 54.0195 40.4414 54.2324 40.9883 54.2324C41.5391 54.2324 41.9766 54.0176 42.3008 53.5879C42.625 53.1543 42.7871 52.5488 42.7871 51.7715C42.7871 51.0762 42.6211 50.5137 42.2891 50.084C41.9609 49.6504 41.5234 49.4336 40.9766 49.4336C40.4414 49.4336 40.0098 49.6465 39.6816 50.0723C39.3535 50.498 39.1895 51.1074 39.1895 51.9004ZM44.9434 51.7715C44.9434 51.1504 45.0645 50.5918 45.3066 50.0957C45.5527 49.5996 45.8926 49.2168 46.3262 48.9473C46.7637 48.6777 47.2617 48.543 47.8203 48.543C48.6836 48.543 49.3809 48.8418 49.9121 49.4395C50.4473 50.0371 50.7148 50.832 50.7148 51.8242V51.9004C50.7148 52.5176 50.5957 53.0723 50.3574 53.5645C50.123 54.0527 49.7852 54.4336 49.3438 54.707C48.9062 54.9805 48.4023 55.1172 47.832 55.1172C46.9727 55.1172 46.2754 54.8184 45.7402 54.2207C45.209 53.623 44.9434 52.832 44.9434 51.8477V51.7715ZM46.0332 51.9004C46.0332 52.6035 46.1953 53.168 46.5195 53.5938C46.8477 54.0195 47.2852 54.2324 47.832 54.2324C48.3828 54.2324 48.8203 54.0176 49.1445 53.5879C49.4688 53.1543 49.6309 52.5488 49.6309 51.7715C49.6309 51.0762 49.4648 50.5137 49.1328 50.084C48.8047 49.6504 48.3672 49.4336 47.8203 49.4336C47.2852 49.4336 46.8535 49.6465 46.5254 50.0723C46.1973 50.498 46.0332 51.1074 46.0332 51.9004ZM51.8105 51.7773C51.8105 50.8047 52.041 50.0234 52.502 49.4336C52.9629 48.8398 53.5664 48.543 54.3125 48.543C55.0547 48.543 55.6426 48.7969 56.0762 49.3047V46H57.1602V55H56.1641L56.1113 54.3203C55.6777 54.8516 55.0742 55.1172 54.3008 55.1172C53.5664 55.1172 52.9668 54.8164 52.502 54.2148C52.041 53.6133 51.8105 52.8281 51.8105 51.8594V51.7773ZM52.8945 51.9004C52.8945 52.6191 53.043 53.1816 53.3398 53.5879C53.6367 53.9941 54.0469 54.1973 54.5703 54.1973C55.2578 54.1973 55.7598 53.8887 56.0762 53.2715V50.3594C55.752 49.7617 55.2539 49.4629 54.582 49.4629C54.0508 49.4629 53.6367 49.668 53.3398 50.0781C53.043 50.4883 52.8945 51.0957 52.8945 51.9004Z" fill="#A5A5A5"/>
<path d="M46.5626 11.7344H39.2031V6.57812H37.1406V11.7344H28.8906V13.7969H30.0456L30.4423 16.8906H23.2188C21.8517 16.8922 20.5411 17.4359 19.5744 18.4026C18.6078 19.3692 18.0641 20.6798 18.0625 22.0469V23.0781H36.1094V22.0469C36.1102 21.2688 35.9339 20.5007 35.5938 19.8009C35.2909 19.1774 34.8658 18.6211 34.3437 18.1651C33.8215 17.7091 33.2131 17.3627 32.5545 17.1464L32.1251 13.7969H44.2187L41.9048 31.8438H18.0625V33.9062H43.72L46.2981 13.7969H47.9688V11.7344H46.5626ZM33.8701 21.0156H20.3017C20.5157 20.4128 20.9109 19.891 21.4331 19.5218C21.9554 19.1525 22.5791 18.9539 23.2188 18.9531H30.9531C31.5927 18.9539 32.2165 19.1525 32.7387 19.5218C33.261 19.891 33.6562 20.4128 33.8701 21.0156Z" fill="#31313B"/>
<path d="M35.5938 26.6875H36.1094V24.625H18.0625V26.6875H35.5938Z" fill="#31313B"/>
<path d="M35.5938 30.2969H36.1094V28.2344H18.0625V30.2969H35.5938Z" fill="#31313B"/>
</svg>
