<svg width="46" height="51" viewBox="0 0 46 51" fill="none" xmlns="http://www.w3.org/2000/svg">
<g clip-path="url(#clip0_213_18)">
<path d="M18.2891 39.8809C18 40.2949 17.5957 40.6055 17.0762 40.8125C16.5605 41.0156 15.959 41.1172 15.2715 41.1172C14.5762 41.1172 13.959 40.9551 13.4199 40.6309C12.8809 40.3027 12.4629 39.8379 12.166 39.2363C11.873 38.6348 11.7227 37.9375 11.7148 37.1445V36.4004C11.7148 35.1152 12.0137 34.1191 12.6113 33.4121C13.2129 32.7051 14.0566 32.3516 15.1426 32.3516C16.0332 32.3516 16.75 32.5801 17.293 33.0371C17.8359 33.4902 18.168 34.1348 18.2891 34.9707H17.1641C16.9531 33.8418 16.2812 33.2773 15.1484 33.2773C14.3945 33.2773 13.8223 33.543 13.4316 34.0742C13.0449 34.6016 12.8496 35.3672 12.8457 36.3711V37.0684C12.8457 38.0254 13.0645 38.7871 13.502 39.3535C13.9395 39.916 14.5312 40.1973 15.2773 40.1973C15.6992 40.1973 16.0684 40.1504 16.3848 40.0566C16.7012 39.9629 16.9629 39.8047 17.1699 39.582V37.666H15.1953V36.752H18.2891V39.8809ZM22.0742 39.4121L23.5508 34.6602H24.7109L22.1621 41.9785C21.7676 43.0332 21.1406 43.5605 20.2812 43.5605L20.0762 43.543L19.6719 43.4668V42.5879L19.9648 42.6113C20.332 42.6113 20.6172 42.5371 20.8203 42.3887C21.0273 42.2402 21.1973 41.9688 21.3301 41.5742L21.5703 40.9297L19.3086 34.6602H20.4922L22.0742 39.4121ZM26.7031 34.6602L26.7324 35.3633C27.1973 34.8164 27.8242 34.543 28.6133 34.543C29.5 34.543 30.1035 34.8828 30.4238 35.5625C30.6348 35.2578 30.9082 35.0117 31.2441 34.8242C31.584 34.6367 31.9844 34.543 32.4453 34.543C33.8359 34.543 34.543 35.2793 34.5664 36.752V41H33.4824V36.8164C33.4824 36.3633 33.3789 36.0254 33.1719 35.8027C32.9648 35.5762 32.6172 35.4629 32.1289 35.4629C31.7266 35.4629 31.3926 35.584 31.127 35.8262C30.8613 36.0645 30.707 36.3867 30.6641 36.793V41H29.5742V36.8457C29.5742 35.9238 29.123 35.4629 28.2207 35.4629C27.5098 35.4629 27.0234 35.7656 26.7617 36.3711V41H25.6777V34.6602H26.7031Z" fill="#A5A5A5"/>
<path d="M15.4834 5.9165H11.5167C11.2913 5.9165 11.0751 6.00606 10.9156 6.16546C10.7562 6.32487 10.6667 6.54107 10.6667 6.7665V19.2332C10.6667 19.3448 10.6887 19.4553 10.7314 19.5585C10.7741 19.6616 10.8367 19.7553 10.9156 19.8342C10.9946 19.9131 11.0883 19.9758 11.1914 20.0185C11.2945 20.0612 11.4051 20.0832 11.5167 20.0832H15.4834C15.595 20.0832 15.7055 20.0612 15.8086 20.0185C15.9118 19.9758 16.0055 19.9131 16.0844 19.8342C16.1633 19.7553 16.2259 19.6616 16.2687 19.5585C16.3114 19.4553 16.3334 19.3448 16.3334 19.2332V6.7665C16.3334 6.54107 16.2438 6.32487 16.0844 6.16546C15.925 6.00606 15.7088 5.9165 15.4834 5.9165V5.9165Z" stroke="#31313B" stroke-width="1.25" stroke-linecap="round" stroke-linejoin="round"/>
<path d="M32.4834 5.9165H28.5167C28.2913 5.9165 28.0751 6.00606 27.9156 6.16546C27.7562 6.32487 27.6667 6.54107 27.6667 6.7665V19.2332C27.6667 19.3448 27.6887 19.4553 27.7314 19.5585C27.7741 19.6616 27.8367 19.7553 27.9156 19.8342C27.9946 19.9131 28.0883 19.9758 28.1914 20.0185C28.2945 20.0612 28.4051 20.0832 28.5167 20.0832H32.4834C32.595 20.0832 32.7055 20.0612 32.8086 20.0185C32.9118 19.9758 33.0055 19.9131 33.0844 19.8342C33.1633 19.7553 33.2259 19.6616 33.2687 19.5585C33.3114 19.4553 33.3334 19.3448 33.3334 19.2332V6.7665C33.3334 6.54107 33.2438 6.32487 33.0844 6.16546C32.925 6.00606 32.7088 5.9165 32.4834 5.9165V5.9165Z" stroke="#31313B" stroke-width="1.25" stroke-linecap="round" stroke-linejoin="round"/>
<path d="M6.41669 16.4V9.6C6.41669 9.37457 6.50624 9.15836 6.66565 8.99896C6.82505 8.83955 7.04125 8.75 7.26669 8.75H9.81669C10.0421 8.75 10.2583 8.83955 10.4177 8.99896C10.5771 9.15836 10.6667 9.37457 10.6667 9.6V16.4C10.6667 16.6254 10.5771 16.8416 10.4177 17.001C10.2583 17.1604 10.0421 17.25 9.81669 17.25H7.26669C7.04125 17.25 6.82505 17.1604 6.66565 17.001C6.50624 16.8416 6.41669 16.6254 6.41669 16.4V16.4Z" stroke="#31313B" stroke-width="1.25" stroke-linecap="round" stroke-linejoin="round"/>
<path d="M37.5834 16.4V9.6C37.5834 9.37457 37.4938 9.15836 37.3344 8.99896C37.175 8.83955 36.9588 8.75 36.7334 8.75H34.1834C33.9579 8.75 33.7417 8.83955 33.5823 8.99896C33.4229 9.15836 33.3334 9.37457 33.3334 9.6V16.4C33.3334 16.6254 33.4229 16.8416 33.5823 17.001C33.7417 17.1604 33.9579 17.25 34.1834 17.25H36.7334C36.9588 17.25 37.175 17.1604 37.3344 17.001C37.4938 16.8416 37.5834 16.6254 37.5834 16.4V16.4Z" stroke="#31313B" stroke-width="1.25" stroke-linecap="round" stroke-linejoin="round"/>
<path d="M16.3334 13H27.6667" stroke="#31313B" stroke-width="1.25" stroke-linecap="round" stroke-linejoin="round"/>
</g>
<defs>
<clipPath id="clip0_213_18">
<rect width="46" height="51" fill="white"/>
</clipPath>
</defs>
</svg>
