<svg width="48" height="48" viewBox="0 0 48 48" fill="none" xmlns="http://www.w3.org/2000/svg">
<g filter="url(#filter0_d_26_163)">
<circle cx="24" cy="20" r="20" fill="white"/>
</g>
<path d="M32.3247 15.3735C32.0532 14.7449 31.6617 14.1752 31.1722 13.6964C30.6823 13.2162 30.1047 12.8346 29.4708 12.5723C28.8135 12.2993 28.1085 12.1595 27.3967 12.1611C26.3981 12.1611 25.4239 12.4346 24.5773 12.9511C24.3747 13.0746 24.1823 13.2103 24 13.3582C23.8177 13.2103 23.6253 13.0746 23.4227 12.9511C22.5761 12.4346 21.6019 12.1611 20.6033 12.1611C19.8843 12.1611 19.1875 12.2989 18.5292 12.5723C17.8932 12.8356 17.32 13.2144 16.8278 13.6964C16.3377 14.1747 15.9461 14.7445 15.6753 15.3735C15.3938 16.0278 15.25 16.7225 15.25 17.4375C15.25 18.112 15.3877 18.8148 15.6612 19.5298C15.89 20.1273 16.2182 20.7471 16.6374 21.373C17.3018 22.3634 18.2153 23.3964 19.3495 24.4436C21.2292 26.1794 23.0906 27.3785 23.1696 27.4271L23.6496 27.7349C23.8623 27.8706 24.1357 27.8706 24.3484 27.7349L24.8284 27.4271C24.9074 27.3764 26.7668 26.1794 28.6484 24.4436C29.7827 23.3964 30.6962 22.3634 31.3605 21.373C31.7798 20.7471 32.11 20.1273 32.3368 19.5298C32.6102 18.8148 32.748 18.112 32.748 17.4375C32.75 16.7225 32.6062 16.0278 32.3247 15.3735ZM24 26.1328C24 26.1328 16.7894 21.5127 16.7894 17.4375C16.7894 15.3735 18.4968 13.7005 20.6033 13.7005C22.0839 13.7005 23.3681 14.5269 24 15.7341C24.6319 14.5269 25.9161 13.7005 27.3967 13.7005C29.5032 13.7005 31.2106 15.3735 31.2106 17.4375C31.2106 21.5127 24 26.1328 24 26.1328Z" fill="#8E8E8E"/>
<defs>
<filter id="filter0_d_26_163" x="0" y="0" width="48" height="48" filterUnits="userSpaceOnUse" color-interpolation-filters="sRGB">
<feFlood flood-opacity="0" result="BackgroundImageFix"/>
<feColorMatrix in="SourceAlpha" type="matrix" values="0 0 0 0 0 0 0 0 0 0 0 0 0 0 0 0 0 0 127 0" result="hardAlpha"/>
<feOffset dy="4"/>
<feGaussianBlur stdDeviation="2"/>
<feComposite in2="hardAlpha" operator="out"/>
<feColorMatrix type="matrix" values="0 0 0 0 0 0 0 0 0 0 0 0 0 0 0 0 0 0 0.25 0"/>
<feBlend mode="normal" in2="BackgroundImageFix" result="effect1_dropShadow_26_163"/>
<feBlend mode="normal" in="SourceGraphic" in2="effect1_dropShadow_26_163" result="shape"/>
</filter>
</defs>
</svg>
