<svg width="40" height="57" viewBox="0 0 40 57" fill="none" xmlns="http://www.w3.org/2000/svg">
<path d="M12.0879 43.5635C10.9622 43.2399 10.1419 42.8434 9.62695 42.374C9.11654 41.9001 8.86133 41.3167 8.86133 40.624C8.86133 39.8402 9.1735 39.193 9.79785 38.6826C10.4268 38.1676 11.2425 37.9102 12.2451 37.9102C12.9287 37.9102 13.5371 38.0423 14.0703 38.3066C14.6081 38.571 15.0228 38.9355 15.3145 39.4004C15.6107 39.8652 15.7588 40.3734 15.7588 40.9248H14.4395C14.4395 40.3232 14.248 39.8516 13.8652 39.5098C13.4824 39.1634 12.9424 38.9902 12.2451 38.9902C11.598 38.9902 11.0921 39.1338 10.7275 39.4209C10.3675 39.7035 10.1875 40.0977 10.1875 40.6035C10.1875 41.0091 10.3584 41.3532 10.7002 41.6357C11.0465 41.9137 11.6322 42.1689 12.457 42.4014C13.2865 42.6338 13.9336 42.8913 14.3984 43.1738C14.8678 43.4518 15.2142 43.7777 15.4375 44.1514C15.6654 44.5251 15.7793 44.9648 15.7793 45.4707C15.7793 46.2773 15.4648 46.9245 14.8359 47.4121C14.207 47.8952 13.3662 48.1367 12.3135 48.1367C11.6299 48.1367 10.9919 48.0068 10.3994 47.7471C9.80697 47.4827 9.34896 47.1227 9.02539 46.667C8.70638 46.2113 8.54688 45.694 8.54688 45.1152H9.86621C9.86621 45.7168 10.0872 46.193 10.5293 46.5439C10.9759 46.8903 11.5706 47.0635 12.3135 47.0635C13.0062 47.0635 13.5371 46.9222 13.9062 46.6396C14.2754 46.3571 14.46 45.972 14.46 45.4844C14.46 44.9967 14.2891 44.6208 13.9473 44.3564C13.6055 44.0876 12.9857 43.8232 12.0879 43.5635ZM23.5176 44.3838C23.5176 45.5094 23.2601 46.4163 22.7451 47.1045C22.2301 47.7926 21.5329 48.1367 20.6533 48.1367C19.7555 48.1367 19.0492 47.8519 18.5342 47.2822V50.8438H17.2695V40.6035H18.4248L18.4863 41.4238C19.0013 40.7858 19.7168 40.4668 20.6328 40.4668C21.5215 40.4668 22.2233 40.8018 22.7383 41.4717C23.2578 42.1416 23.5176 43.0736 23.5176 44.2676V44.3838ZM22.2529 44.2402C22.2529 43.4062 22.0752 42.7477 21.7197 42.2646C21.3643 41.7816 20.8766 41.54 20.2568 41.54C19.4912 41.54 18.917 41.8796 18.5342 42.5586V46.0928C18.9124 46.7673 19.4912 47.1045 20.2705 47.1045C20.8766 47.1045 21.3574 46.8652 21.7129 46.3867C22.0729 45.9036 22.2529 45.1882 22.2529 44.2402ZM29.6973 48C29.6243 47.8542 29.5651 47.5944 29.5195 47.2207C28.9316 47.8314 28.2298 48.1367 27.4141 48.1367C26.6849 48.1367 26.0856 47.9316 25.6162 47.5215C25.1514 47.1068 24.9189 46.5827 24.9189 45.9492C24.9189 45.179 25.2106 44.582 25.7939 44.1582C26.3818 43.7298 27.2067 43.5156 28.2686 43.5156H29.499V42.9346C29.499 42.4925 29.3669 42.1416 29.1025 41.8818C28.8382 41.6175 28.4486 41.4854 27.9336 41.4854C27.4824 41.4854 27.1042 41.5993 26.7988 41.8271C26.4935 42.055 26.3408 42.3307 26.3408 42.6543H25.0693C25.0693 42.2852 25.1992 41.9297 25.459 41.5879C25.7233 41.2415 26.0788 40.9681 26.5254 40.7676C26.9766 40.5671 27.471 40.4668 28.0088 40.4668C28.861 40.4668 29.5286 40.681 30.0117 41.1094C30.4948 41.5332 30.7454 42.1188 30.7637 42.8662V46.2705C30.7637 46.9495 30.8503 47.4896 31.0234 47.8906V48H29.6973ZM27.5986 47.0361C27.9951 47.0361 28.3711 46.9336 28.7266 46.7285C29.082 46.5234 29.3395 46.2568 29.499 45.9287V44.4111H28.5078C26.9583 44.4111 26.1836 44.8646 26.1836 45.7715C26.1836 46.168 26.3158 46.4779 26.5801 46.7012C26.8444 46.9245 27.1839 47.0361 27.5986 47.0361Z" fill="#A5A5A5"/>
<path d="M31.1176 10.903C30.9666 10.9357 28.939 11.4081 26.3411 13.0466C25.9508 11.1532 24.7956 7.60791 21.3773 4.00224L20.5 3.07666L19.6228 4.00345C16.1923 7.62241 15.042 11.1773 14.6553 13.0829C12.0477 11.4166 10.0359 10.9381 9.88844 10.9042L8.41669 10.5756V12.0836C8.41669 20.8923 13.1594 26.5836 20.5 26.5836C27.7271 26.5836 32.5834 20.757 32.5834 12.0836V10.5828L31.1176 10.903ZM16.8738 14.5462C16.8762 14.5063 17.0575 10.8003 20.5 6.65333C23.9003 10.7617 24.1238 14.5002 24.125 14.5002V14.6513C22.7699 15.7774 21.5495 17.0562 20.4879 18.4624C19.4234 17.081 18.2115 15.8197 16.8738 14.7008V14.5462ZM20.5 24.1669C14.0765 24.1669 11.3783 19.0967 10.9095 13.8187C12.9093 14.6863 16.4871 16.7502 19.4971 21.2174L20.5133 22.7266L21.5102 21.2041C24.4416 16.7236 28.0654 14.6658 30.0845 13.8067C29.6036 18.9155 26.909 24.1669 20.5 24.1669Z" fill="#31313B"/>
</svg>
